<?xml version="1.0" encoding="utf-8"?>
<!-- Generator: Adobe Illustrator 28.0.0, SVG Export Plug-In . SVG Version: 6.00 Build 0)  -->
<svg version="1.1" xmlns="http://www.w3.org/2000/svg" xmlns:xlink="http://www.w3.org/1999/xlink" x="0px" y="0px"
	 viewBox="0 0 838 259" style="enable-background:new 0 0 838 259;" xml:space="preserve">
<style type="text/css">
	.st0{fill:#FFFFFF;}
</style>
<g id="Capa_2">
</g>
<g id="Capa_1">
	<g>
		<path class="st0" d="M152.5,131.6c-37.5,22.5-122.2,78-127.8,20.8c-2.5-25.8,12.5-54.8,28.5-74c93.2-113,198.2-72,122.2-13l-6-1
			c77.8-98.5-67.5-38.8-116,32.2c-10,14.5-19.8,34.5-20,52.5c-0.2,18.5,3,22.2,22,18.2c22.5-4.8,67-31.5,95.2-50.8
			c8.2-5.8,19.2-17,24.2-5.2c6,15.5-5.2,50.2-12.8,66c7,0.8,12.2,0.2,16,7l-13.5,2c-12,1.2-28.5,54.5-83.5,64.5
			c-25.5,4.8-98.8-5.5-77.2-32.8c28-36.5,113.8-39.2,146-40.5C176.3,117.1,163.8,124.8,152.5,131.6z M15,220.3
			c-8.8,8-7.2,14.2,3.8,18.2c44,16.5,97.5,0.5,125.2-49.5C116,186.1,36.3,200.8,15,220.3z"/>
		<path class="st0" d="M288.8,138.3c4,0.8,3.5,2,3,6.2c-8.5-0.5-17.2-1.5-25.8-1.5c-5.5,0-9.2,2.2-12.2,6.2
			c-10,12-25,25.8-39.5,31.2c-11.8,4.2-20.8-3.5-20.5-15c0.8-27.2,50.5-64,66-43.2c2,2.8,5.2,8.8,3.8,15
			C269.5,138.1,282.5,137.3,288.8,138.3z M240.3,142.6c6.5-7,13.5-2.5,13.5-16.8c-4,6-28.5-10.2-49.2,37.8c-9.2,21.8,25-2.5,32.2-11
			C238.3,151.1,237.5,145.6,240.3,142.6z"/>
		<path class="st0" d="M344,151.8c0.5-1.2,1-3,1.8-3.5c22-3,42.2-58,64.2-67.5l5.8,7.8c-20,19.2-28.8,29-44,52.8
			c8,0.5,36-3.2,50.2-3c5,0,5,2.8,6.5,5.2l-41.2,3.5c39.5,35.5-62.2,132.8-61.5,83.8c0-4.5,0.8-9,1.8-13c5-15.2,10.8-31,16.8-45.8
			c2-5,4.5-10,6.8-14.8L344,151.8z M387.8,166.1c1-4.5,2.2-9.8-3.2-13.5c-5-3.8-11.5-3.2-16-0.5c-11.2,5.5-24.8,46-31,69.5
			c-4.2,15.2,0,16,10.8,6.5C366.8,212.1,383.3,188.6,387.8,166.1z"/>
		<path class="st0" d="M505,138.3c4,0.8,3.5,2,3,6.2c-8.5-0.5-17.2-1.5-25.8-1.5c-5.5,0-9.2,2.2-12.2,6.2c-10,12-25,25.8-39.5,31.2
			c-11.8,4.2-20.8-3.5-20.5-15c0.8-27.2,50.5-64,66-43.2c2,2.8,5.2,8.8,3.8,15C485.8,138.1,498.8,137.3,505,138.3z M456.5,142.6
			c6.5-7,13.5-2.5,13.5-16.8c-4,6-28.5-10.2-49.2,37.8c-9.2,21.8,25-2.5,32.2-11C454.5,151.1,453.8,145.6,456.5,142.6z"/>
		<path class="st0" d="M507.7,155.1c3.8-2.8,19.5-19.2,33-28.2c10.5-7,19.5-9,20.2,1c-20,5.2-45.5,26.5-58.2,47.2
			c-1,1.8-1.8,4.5-3.8,5.2c-3.8,1.5-10.8-3.2-9-8.8c2.8-13.2,23.2-48,30.5-56.2c4.2-4.8,8.5-2.8,11,3
			C526.2,125.1,518.7,133.3,507.7,155.1z"/>
		<path class="st0" d="M718,144.1c-20,13.8-60,38.2-74.8,41.5c-8.5,2-15.5-2.5-17.2-9.8c-3.2-12,13.8-34.2,21.8-40.8
			c5-4,9.5,1,8.2,4.5c-0.8,2-2.8,3.5-4,5c-4.8,6-10.2,13-13.8,18.8c-6,10-10.5,24.8,7,15c23-12.8,49.2-28.8,71.8-37.8L718,144.1z
			 M659.5,120.1c0-10.2,15.8-9.2,13-0.8C670.7,124.6,659.5,131.1,659.5,120.1z"/>
		<path class="st0" d="M696.7,197.3c3.8-24.5,32-94.2,49.2-124c-21.5,0-42.2,4.2-62.2,9.8c-12-14,54.2-19.5,63.5-20.8
			c13.5-1.5,23.2-39.2,37.8-34.5l4.5,7c-8.5,3.2-16.5,17-22.2,26.5c13.5,0.5,64.5,1,61.2,16.2c-8.8-6-19.5-5.8-29.5-6.2
			c-10.8-0.8-22-0.2-32.8-0.2c-19.8,0.5-59,121.8-64,133.5C697.5,204.1,696,201.6,696.7,197.3z"/>
	</g>
</g>
</svg>
